<?xml version="1.0" encoding="utf-8"?>
<!-- Generator: Adobe Illustrator 19.1.0, SVG Export Plug-In . SVG Version: 6.00 Build 0)  -->
<svg version="1.1" id="Calque_1" xmlns="http://www.w3.org/2000/svg" xmlns:xlink="http://www.w3.org/1999/xlink" x="0px" y="0px"
	 viewBox="-428 230.3 102.1 101.7" style="enable-background:new -428 230.3 102.1 101.7;" xml:space="preserve">
<style type="text/css">
	.st0{fill:#71C0A2;}
</style>
<path class="st0" d="M-340.8,245c-9.9-9.8-22.2-14.7-36.8-14.7c-9,0-17.5,2.2-25.2,6.7c-7.8,4.5-13.9,10.7-18.4,18.7
	c-4.5,7.9-6.8,16.6-6.8,25.9c0,14,4.9,25.8,14.8,35.7c9.9,9.8,22,14.7,36.4,14.7c14.2,0,26.2-4.9,36.1-14.8
	c9.9-9.9,14.8-21.9,14.8-36.1C-326,266.8-330.9,254.8-340.8,245z M-377.2,322.6c-11.3,0-20.9-4-28.8-11.9
	c-7.5-7.4-11.4-16.4-11.9-27c5.3-0.5,13.9-0.7,23,1.2c18.6,4,31.2,15,37.5,32.7c-0.3,0.2-0.7,0.4-1,0.6c-1.3-0.7-2.6-1.3-3.8-1.8
	c-0.8-0.4-1.7-0.8-2.5-1.1c-0.8-0.3-1.7-0.6-2.5-0.9c-1.6-0.7-3.4-1-5.1-1.5c-0.9-0.2-1.7-0.3-2.6-0.6c-0.8-0.2-1.7-0.5-2.5-0.8
	c-0.8-0.3-1.6-0.7-2.5-1c-0.4-0.2-0.8-0.3-1.2-0.5l-1.2-0.6c-0.8-0.4-1.6-0.8-2.4-1.2c-0.8-0.5-1.6-0.9-2.3-1.4
	c-3-2-5.8-4.3-8.1-7.2l-0.6,0.3c1.4,3.6,3.8,6.7,6.5,9.5c0.7,0.7,1.4,1.3,2.1,2c0.7,0.7,1.5,1.3,2.3,1.9l1.2,0.9
	c0.4,0.3,0.8,0.5,1.2,0.8c0.8,0.5,1.6,1.1,2.5,1.5c3.4,1.9,6.9,4,10.9,4.5c0.9,0.2,1.9,0.2,2.8,0.2
	C-369.6,322.1-373.3,322.6-377.2,322.6z M-341.3,302.2c-2.7,4.7-6.1,8.6-10.3,11.8c-9.1-23.8-27.7-32.6-42.1-35.6
	c-9.5-2-18.3-1.9-24-1.4c0.6-6,2.3-11.5,5.2-16.6c3.6-6.3,8.6-11.4,15-15.1s13.2-5.6,20.4-5.6c7.3,0,14.2,1.9,20.7,5.6
	s11.5,8.7,15.1,14.9c3.6,6.2,5.4,13.2,5.4,20.8C-336,288.8-337.8,295.9-341.3,302.2z"/>
</svg>
