<?xml version="1.0" encoding="utf-8"?>
<!-- Generator: Adobe Illustrator 19.1.0, SVG Export Plug-In . SVG Version: 6.00 Build 0)  -->
<svg version="1.1" id="Calque_1" xmlns="http://www.w3.org/2000/svg" xmlns:xlink="http://www.w3.org/1999/xlink" x="0px" y="0px"
	 viewBox="0 0 454.8 505.4" style="enable-background:new 0 0 454.8 505.4;" xml:space="preserve">
<style type="text/css">
	.st0{fill:#FFFFFF;}
</style>
<g>
	<g>
		<path class="st0" d="M3.6,51.6C1.6,51.6,0,50,0,48V3.6C0,1.6,1.6,0,3.6,0h45.7c2,0,3.6,1.6,3.6,3.6s-1.6,3.6-3.6,3.6H7.3V48
			C7.3,50,5.6,51.6,3.6,51.6z"/>
	</g>
	<g>
		<path class="st0" d="M451.2,505.4h-45.7c-2,0-3.6-1.6-3.6-3.6c0-2,1.6-3.6,3.6-3.6h42.1v-40.7c0-2,1.6-3.6,3.6-3.6
			c2,0,3.6,1.6,3.6,3.6v44.4C454.8,503.8,453.2,505.4,451.2,505.4z"/>
	</g>
	<g>
		<path class="st0" d="M229.8,33.5h9.8v66.4c0,10.2-0.8,17.3-2.4,21.3c-1.6,4-4.2,7.2-7.9,9.6c-3.7,2.4-8.2,3.6-13.4,3.6
			c-4,0-7.9-0.8-11.7-2.3c-3.9-1.5-8.1-4.2-12.8-8.1l5.2-7.8c5.1,3.6,9.4,6.2,12.8,7.6c2.2,1,4.4,1.5,6.6,1.5c2.8,0,5.4-0.8,7.7-2.5
			c2.3-1.7,3.9-3.9,4.8-6.8c0.9-2.8,1.4-8.3,1.4-16.3V33.5z"/>
		<path class="st0" d="M341.8,33.5l45.9,98.4H377l-15.5-32.4h-42.4l-15.3,32.4h-11l46.5-98.4H341.8z M340.5,54.4L323.6,90h33.7
			L340.5,54.4z"/>
	</g>
	<g>
		<path class="st0" d="M39.3,286.9V181.7h21.8c15.7,0,27.1,1.3,34.2,3.8c10.2,3.6,18.2,9.8,23.9,18.6c5.7,8.8,8.6,19.3,8.6,31.5
			c0,10.5-2.3,19.8-6.8,27.8c-4.6,8-10.5,13.9-17.7,17.7c-7.3,3.8-17.5,5.7-30.6,5.7H39.3z M49.4,276.9h12.2
			c14.5,0,24.6-0.9,30.2-2.7c7.9-2.6,14.1-7.2,18.7-13.9c4.5-6.7,6.8-14.9,6.8-24.5c0-10.1-2.5-18.8-7.4-26
			c-4.9-7.2-11.7-12.1-20.5-14.8c-6.6-2-17.4-3-32.5-3h-7.4V276.9z"/>
		<path class="st0" d="M188.8,181.7h60.3V192h-49.8v33h49.3v10.3h-49.3v41.3h49.3v10.3h-59.8V181.7z"/>
		<path class="st0" d="M307.9,286.9V181.7h2.3l70,80.6v-80.6h10.4v105.2h-2.4l-69.4-79.6v79.6H307.9z"/>
	</g>
	<g>
		<path class="st0" d="M35.4,337.3h20.7c8.3,0,14.7,1,19.2,3c4.5,2,8,5,10.6,9.1c2.6,4.1,3.9,8.6,3.9,13.7c0,4.7-1.1,8.9-3.4,12.8
			c-2.3,3.8-5.6,6.9-10,9.3c5.5,1.9,9.7,4,12.6,6.5c2.9,2.5,5.2,5.5,6.9,9.1c1.6,3.5,2.5,7.4,2.5,11.5c0,8.4-3.1,15.6-9.3,21.4
			c-6.2,5.8-14.5,8.8-24.8,8.8H35.4V337.3z M45.7,347.6v33.7h6c7.3,0,12.7-0.7,16.1-2c3.4-1.4,6.2-3.5,8.2-6.4c2-2.9,3-6.2,3-9.8
			c0-4.8-1.7-8.6-5.1-11.3c-3.4-2.7-8.7-4.1-16.1-4.1H45.7z M45.7,391.8v40.3h13c7.7,0,13.3-0.8,16.9-2.3c3.6-1.5,6.5-3.8,8.6-7
			c2.2-3.2,3.3-6.6,3.3-10.4c0-4.7-1.5-8.7-4.6-12.2c-3.1-3.5-7.3-5.9-12.6-7.1c-3.6-0.9-9.8-1.3-18.7-1.3H45.7z"/>
	</g>
	<path class="st0" d="M378,344.4V406c0,8-0.3,13.4-1,16c-0.1,0.5-0.3,1.1-0.5,1.6c-6.9-12.4-18-17.4-26.8-19.2
		c-7.9-1.7-15-1.2-18.8-0.8v-59.1h-10.2V406c0,10.4,0.6,17.5,1.9,21.5c2,6.5,5.9,11.7,11.8,15.6s12.9,5.9,21.2,5.9
		c7.6,0,14-2.1,19.4-6.2c5.3-4.2,8.9-9.1,10.7-14.7c1.8-5.6,2.7-13,2.7-22.1v-61.6H378z M354.9,439.3c-3.9,0-7.7-0.9-11.6-2.7
		c-3.8-1.8-6.7-4.1-8.5-6.8c-1.9-2.7-3-6.1-3.5-10.1c-0.2-1.6-0.4-5.4-0.4-11.4c3.3-0.4,10.3-1,18,0.7c12,2.6,20.4,9.3,25.1,20.1
		c-0.5,0.8-1,1.5-1.6,2.2c0,0,0,0,0,0c-0.2-0.1-0.5-0.2-0.7-0.3c-0.6-0.3-1.2-0.5-1.8-0.8c-0.6-0.2-1.2-0.4-1.8-0.7
		c-1.2-0.5-2.3-0.7-3.5-1c-0.6-0.1-1.2-0.2-1.8-0.4c-0.6-0.2-1.2-0.4-1.8-0.6c-0.6-0.2-1.1-0.5-1.7-0.7c-0.3-0.1-0.6-0.2-0.9-0.4
		l-0.8-0.4c-0.6-0.3-1.1-0.5-1.7-0.9c-0.5-0.3-1.1-0.6-1.6-1c-2.1-1.4-4.1-3-5.6-5.1l-0.4,0.2c1,2.5,2.7,4.7,4.6,6.6
		c0.5,0.5,1,0.9,1.5,1.4c0.5,0.5,1,0.9,1.6,1.3l0.8,0.6c0.3,0.2,0.6,0.4,0.9,0.6c0.6,0.4,1.2,0.8,1.8,1.1c2.4,1.3,4.8,2.8,7.6,3.1
		c0.7,0.1,1.4,0.1,2.1,0.2c0.1,0,0.2,0,0.2,0c-1.4,1.1-3,2.1-4.7,2.9C361.5,438.6,358.3,439.3,354.9,439.3z"/>
	<g>
		<path class="st0" d="M104.3,400.2h6.3l15.9,35.6l15.4-35.6h6.3l-27.6,63.2h-6.3l8.9-20.4L104.3,400.2z"/>
	</g>
</g>
</svg>
